<svg width="800" height="800" viewBox="0 0 64 64" xmlns="http://www.w3.org/2000/svg"><path d="M26.65 24.45A11.55 11.55 0 0124 28.17h.54a4.87 4.87 0 011-1 7.19 7.19 0 01.9-.57l.4-2a1.85 1.85 0 00-.19-.15z" fill="#fff"/><path d="M10.74 15.33s2-3.71 5.17-4 7.5.71 9.08 2.75 1 6.54 1 6.54l1.46.38a1.93 1.93 0 012.29-.75 1.7 1.7 0 011.3 2.37 2.12 2.12 0 01-.92 1l-1 4.29s.83.46 1 .92a4.79 4.79 0 01.21 1.13s2.41.25 3.41.33 2.3.21 2.3.21a3.8 3.8 0 011.16-2.63 4 4 0 012.5-1L41.45 15a3.4 3.4 0 01-1.33-2.88 2.32 2.32 0 013.25-1.91 3.22 3.22 0 011.29 1.21l6-1.63a2.43 2.43 0 012-2 2.31 2.31 0 012.83 2.29c0 1.38-1.71 2.17-1.71 2.17l.67 7.46a2.87 2.87 0 011 .71 3 3 0 01.33 1.08 22.9 22.9 0 013.71.25c.13.21-1.33 7.67-1.46 8s-1.21.37-1.37.17-1-5.38-1-5.38-3.58.21-3.58.42a31.33 31.33 0 01-.67 4.66c-.25.3-1.21.21-1.21.21s-2.12-6.62-2-6.87 0-.59.54-.67 2.75 0 2.75 0a4.61 4.61 0 01.39-1.86 3.57 3.57 0 011.21-.79l-.5-7.31s-1.25.13-1.56-.53-.28-.84-.28-.84l-5.47 1.53a3.06 3.06 0 01-.65 2.15 3.13 3.13 0 01-1.94.91L41 26.8a3.9 3.9 0 012.25 2 9.37 9.37 0 01.38 2.84 61.92 61.92 0 014.65 5.5 19.62 19.62 0 011.69 2.75s3.34.54 4.66 5.16A8.8 8.8 0 0152 54.33c-1.65 1.44-3.87 1.85-8.09 1.85s-11.75.12-20.59-.1-12.22-.69-14.29-3A8.64 8.64 0 018 43.3a10 10 0 014.88-4.37 7.62 7.62 0 011.81-.5s3.41-5.69 4.5-6.69a5.81 5.81 0 013.3-1.74 29.22 29.22 0 013-.16 2.89 2.89 0 011-1.34 3.35 3.35 0 011.35-.69l.81-3.94a2.35 2.35 0 01-1-.93 3.25 3.25 0 01-.31-.88l-1.57-.25a10.06 10.06 0 01-4.09 6c-3.38 2.19-7.94.88-9.5.19a9.74 9.74 0 01-3.88-4.29 6.41 6.41 0 010-4.41 7.94 7.94 0 011.09-1.84l-1-.75a2.81 2.81 0 01-2.87 0c-1.41-.94-1.07-2.41-.32-3.38s3.1-1.72 3.85-.69a2.94 2.94 0 01.47 2.22z" fill="#1d1d1b"/><path d="M7 13.33c1.29-.23 1.66.44 1.53 1.41a1.39 1.39 0 01-2.25 1.09c-1.38-.75-.01-2.37.72-2.5z" fill="#cbe7f5"/><path d="M12.21 15.93s2.13-2.57 3.53-2.94 2.94-.31 3.22 1.47a12.79 12.79 0 01-.66 4.62zM10.87 19.11s4.68 3.94 4.62 4.07-2.78 2.28-4.87.68 0-4.59.25-4.75z" fill="#e6e4da"/><path d="M10.71 16.64c.21 0 5.81 2.66 5.81 3s-.65 1.88-1.06 1.82a55 55 0 01-4.75-4.19c-.28-.27-.28-.66 0-.63z" fill="#cbe7f5"/><path d="M11.24 20.52c.27-.18.53.41.6.53s-.19.44.06 1 .65.75.59.94-.25.43-.37.43a2.87 2.87 0 01-1.22-1.31 1.72 1.72 0 01.34-1.59zM14 15.8a4.75 4.75 0 011.41-1.34 1.28 1.28 0 011.47.31c.09.28-.38.78-.38.78a1 1 0 00-1 .09c-.37.38-.44.79-.65.75s-.85-.46-.85-.59z" fill="#1d1d1b"/><path d="M21.18 14.14a3.25 3.25 0 012.75 2.57c.5 2.12.84 4.62-.94 7.22s-3.4 3.18-5.12 3.31a8.72 8.72 0 01-3.41-.31c-.41-.19-.72-.66-.37-.79a11 11 0 005.09-4.81c1.75-3.33 1.82-6.94 2-7.19z" fill="#cbe7f5"/><path d="M21.24 18.89s.85.1.88.25a10.31 10.31 0 01-.94 3.38c-.69 1.37-1.22 2-1.5 2s-.66 0-.66-.22 1.1-1.5 1.6-2.62a21.24 21.24 0 00.62-2.79z" fill="#1d1d1b"/><path d="M42.37 11.21c.68-.23 1.59.34 1.62 1.5s-1.15 2.06-2 1.5-.84-2.6.38-3zM53.09 8.74c.68-.1 1.31.94 1.06 1.75s-1.56 1.15-2 .59-.15-2.19.94-2.34zM53.59 20.58c.49-.07 1 .56.9 1s-1.5.44-1.65.28a.86.86 0 01.75-1.28z" fill="#cbe7f5"/><path d="M49.84 23.3s3-.34 5.25-.47 3.31-.25 3.28 0-.66 3.72-.88 3.66-.34-3-.69-3.06a33.13 33.13 0 00-5.87.62c0 .22 0 2.56-.31 2.59s-.78-3.03-.78-3.34z" fill="#e7413e"/><path d="M37.34 30.3a2.73 2.73 0 012.78-2.41c2.15.1 2.68 2.75 2.18 2.94a16.61 16.61 0 01-4.96-.53z" fill="#cbe7f5"/><path d="M17.09 38c.31-.35 3.31-5.38 5.56-6.13s12.53.07 15.75.38 3.78.25 4.84 1.69 3.35 4.62 3.1 4.65a1.88 1.88 0 01-.75-.09c-.16-.06-2.82-3.5-3.07-3.53s-1 .28-.87.5 2.78 2.81 2.59 2.84a5.2 5.2 0 01-1.37 0c-.16-.09-2.16-2.81-2.35-2.88s-1.09.22-.93.44 2.37 2.35 2.18 2.44a2.14 2.14 0 01-1.15 0 23.56 23.56 0 00-1.75-2.13c-.28-.06-1 .19-.85.47s1.32 1.53 1.16 1.53z" fill="#85bfe9"/><path d="M20 36.39a33.22 33.22 0 012.66-3.31c.12 0 .59.13.59.31a17.34 17.34 0 01-2.28 3.19 1.91 1.91 0 01-.97-.19z" fill="#1d1d1b"/><path d="M20.12 39.55a204.14 204.14 0 0122.31.5c5.75.66 7.84 1.22 9.44 4s.56 7.5-1.88 9.1-17.9 1.21-24.31 1-12.59-.15-14.94-2.1-2.31-5.31-.74-7.66 3.59-4.46 10.12-4.84z" fill="#e7413e"/><path d="M15.71 41.43c2.15-.55 15.91-.38 21.19-.32s10.65-.11 12.94 1.47S52 46.83 51.59 49s-1.32 3.87-6.1 4.22-20 .5-25.78 0-7.53-1.01-8.71-3.58-.32-6.93 4.71-8.21z" fill="#a42116"/><path d="M17.34 42.49a4.67 4.67 0 014.9 6.06c-1 3.72-6.5 4.69-9 2.25s-2.31-7.75 4.1-8.31zM31.8 42.58a4.68 4.68 0 014.91 6.06c-1 3.72-6.5 4.69-9 2.25s-2.31-7.75 4.09-8.31zM45.87 42.58a4.67 4.67 0 014.9 6.06c-1 3.72-6.5 4.69-9 2.25s-2.31-7.75 4.1-8.31z" fill="#e7413e"/><g fill="#1d1d1b"><path d="M15.9 45.64a2.18 2.18 0 013.28 1.5c.53 1.82-2.06 3-3.41 1.63a2 2 0 01.13-3.13zM30.4 45.77a2.17 2.17 0 013.28 1.5c.53 1.81-2.06 3-3.41 1.62a2 2 0 01.13-3.12zM44.71 45.64a2.18 2.18 0 013.29 1.5c.53 1.82-2.06 3-3.4 1.63a2 2 0 01.11-3.13z"/></g></svg>
