<svg width="800" height="800" viewBox="0 0 64 64" xmlns="http://www.w3.org/2000/svg"><path d="M60.06 48.5a5.82 5.82 0 00-1.08-3c-1.13-1.75-4.17-3.37-7.88-1.42S49 50.13 49 50.13a15.13 15.13 0 00-2.34 1.16C45.06 52.21 45 53 45 53l-1.63-.21v-2.25a15.72 15.72 0 003.29-.2c.34-.25.29-5.13 0-6s-3.75-3.75-3.75-3.75 0-5.34-.12-5.88S40.1 32 40 31.92s-.19-15.13-.23-17.92-.38-3.83-.88-4.41-4.83-6.42-7-6.59-3.66 1.54-4.58 2.63-4.58 5.66-5 7.12S21.69 33 21.69 33A7.68 7.68 0 0019 34.08c-.92.75-.5 8.25-.5 8.25a16.33 16.33 0 00-2 2.5c-.54 1-.46 5.38-.17 5.59a15.46 15.46 0 002.88.29 10.56 10.56 0 00.12 1.08 6.19 6.19 0 00.61 1.21l-1.09.17a2.54 2.54 0 00-1-1.54 3.59 3.59 0 00-2.2-.84 4.45 4.45 0 00-.59-1A9 9 0 0013 48.33a13.11 13.11 0 002.21-2.2c.5-.84-.09-3.8-3.25-4.75a7.41 7.41 0 00-7.3 1.87c-1.5 1.42-1.75 5.5-1.75 5.5a19.2 19.2 0 00-1 2.75c-.45 1.63 1.42 4.13 1.42 4.13a5.62 5.62 0 001.38 3.5c1.37 1.45 4.62.91 4.62.91a9.46 9.46 0 002 .25 9 9 0 002.63-.66c.37-.13 1.58 1 3.41 1.29a13 13 0 004.63-.63c.54-.12.5.09 1.62.46a3.87 3.87 0 002.63-.46c.46-.12.87.21 1.75.29s1.37-.95 1.5-.91a6.44 6.44 0 011 1c.25.29.5.2 1-.21a4 4 0 00.98-1.46 2 2 0 001.58.75c.92-.08 3.38.79 4.58.75a10.41 10.41 0 002.84-.67c.75-.2 2.41.38 3.25.55a8 8 0 002.71-.38c1.16-.21 3 .67 5.12.71A4.67 4.67 0 0056 59a2.61 2.61 0 001.71.54c1.12 0 3-1 4.2-5.08a5.23 5.23 0 00-1.85-5.96zm-54-7.83c.21.08 2-1.46 4.21-1.79A8.15 8.15 0 0114.94 40a5.91 5.91 0 00.54-1.58c-.09-.25-1.71-1.5-5-1.21a8.88 8.88 0 00-5.17 2.08c-.17.17.58 1.29.79 1.38zM49 42.29c.21.09 2-1.46 4.21-1.79a8.16 8.16 0 014.62 1.13 5.66 5.66 0 00.56-1.63c-.08-.25-1.7-1.5-5-1.21a8.92 8.92 0 00-5.16 2.09c-.17.2.58 1.33.77 1.41zM20.1 26.54c.25-.12 0-8.66 0-8.83s-1.18-.19-1.33 0c-.29.46.13 8.63.25 8.79s.83.17 1.08.04zm23 4.46c.17-.08.38-10 .21-10.46s-1.09-.38-1.29-.08c-.08.12-.25 10.25-.13 10.5s1.05.12 1.21.04z" fill="#1d1d1b"/><path d="M25.31 11.75c-.15-.15 4.13-7 6.08-6.92s6.5 7 6.09 7.17-1.75-1.37-6.21-.83-5.71.83-5.96.58z" fill="#e6e4da"/><path d="M27.85 9.67a8.87 8.87 0 012.25-2.5c.38 0 .79.29.67.54a19.24 19.24 0 01-2.08 2.46c-.13-.04-.84-.29-.84-.5z" fill="#1d1d1b"/><path d="M24.27 13.75c.23-.28 1.37-1.25 6-1.33s7.33 1 7.37 1.12.34 19.34.5 19.54 2.59 1.92 2.71 2.42a15.6 15.6 0 01.09 3.33 13.86 13.86 0 01-2.94-2.7c-.58-1-1.46-6.55-1.5-9.84s-.13-9.16-4.79-9.46S26.31 21 26 25.21s-.71 11.33-.88 11.54-5 4.21-5 3.92 0-5.38.42-5.63 2.83-.54 2.88-.91.06-19.42.85-20.38z" fill="#696a9b"/><path d="M31.23 18.42c1.21 0 3.71 1.33 3.66 5.91s.25 18.75.25 18.75a9.1 9.1 0 00-2-.87c-.13.12-.59.62-.38.75a11.86 11.86 0 012.38 1.29c.08.29.2 1.38.08 1.38s-2.38-1.71-2.5-1.55-.46.75-.25.88 2.62 1.46 2.71 1.92.12 1.16.12 1.16-3.12-2.5-3.33-2.25-.58.5-.38.67a37.79 37.79 0 013.71 2.79 1.46 1.46 0 01-.29.63 39.19 39.19 0 00-3.71-2.55c-.12.13-.58.42-.33.63s2.83 2.25 2.71 2.29-4 .13-5.25 0-1.88-.83-1.92-1.71.46-16.21.71-20.37.17-9.88 4.01-9.75z" fill="#cbe7f5"/><path d="M29.35 20.13a2.36 2.36 0 013.79.25c1.09 1.66.8 5.95.46 6.12s-4.5.42-4.91-.21-.21-5.29.66-6.16z" fill="#1d1d1b"/><path d="M31.19 20.29c.79-.05 1.45.71 1.54 2.67s0 2.58-.09 2.58-2.58.29-2.83 0-.5-5.12 1.38-5.25z" fill="#ffe19b"/><path d="M35.06 13.46c.42-.05 2.17.58 2.13.83s0 .54-.13.54-2.29-.37-2.29-.62-.04-.71.29-.75zM35.06 15c.42-.05 2.17.58 2.13.83s0 .55-.13.55-2.29-.38-2.29-.63-.04-.75.29-.75zM35.81 16.79c.42-.05 1.38.38 1.33.63s0 .54-.12.54-1.5-.17-1.5-.42-.04-.71.29-.75z" fill="#1d1d1b"/><path d="M24.69 39.46l-.05 7.67s-.58-.92-2.75-.55-2.91 1.3-3 1.63.09 1.46-.08 1.46a7.55 7.55 0 01-.79-.13s-.38-3 0-3.91 5.79-5.75 6.67-6.17zM37.19 38.71c.19-.17 5.33 4.25 6 4.71s1.45 1.25 1.5 1.71a24.12 24.12 0 01-.09 4c-.16 0-.79-.09-.79-.09s.08-1.71-.12-1.87a6.48 6.48 0 00-3.59-.67 1.94 1.94 0 00-1.79 1.63c0 .25.13 1.37 0 1.37s-1 .08-1 0-.46-10.5-.12-10.79z" fill="#cbe7f5"/><path d="M19.94 49.5s-.17-1.08.08-1.29a4.63 4.63 0 012.37-.58c1.13 0 1.59.2 1.59.45s0 1.59-.13 1.67-3.5-.25-3.91-.25zM39.48 49.25s-.09-1.29.21-1.42a8 8 0 013 .25 4.58 4.58 0 010 1.34z" fill="#85bfe9"/><path d="M25.19 50.92c.16 0 1 .46 1.29.58a6.47 6.47 0 00.71.25l-.09 1-1.87-.16zM35.6 51.79s.92 0 1.25-.46a2.14 2.14 0 00.38-.79l.79.21v1.46H35.6z" fill="#696a9b"/><path d="M39.31 50.25a10.32 10.32 0 013 .25 12.51 12.51 0 010 3 9.91 9.91 0 00-1.54 1.33c-.34.46-.13.63-.34.46a4.21 4.21 0 01-1.12-1.54 32.7 32.7 0 010-3.5zM20.77 50.71a11.08 11.08 0 012.12 0c.71 0 1.3.29 1.38.79a5.75 5.75 0 01-.54 2.71c-.38.46-.84 1.08-.88.92a15.21 15.21 0 00-1.66-1.63 1.68 1.68 0 01-.42-.5s-.5-1.79 0-2.29z" fill="#fab900"/><g fill="#1d1d1b"><path d="M39.89 50.92l.5.08.13 2.42s-.67 0-.63-.17 0-2.33 0-2.33zM41 50.79l.5.09.12 2.41s-.66 0-.62-.16 0-2.34 0-2.34zM22.69 51.29l.5.09.12 2.41s-.67 0-.62-.16 0-2.34 0-2.34zM21.52 51.25c.21 0 .5-.08.54.13s.21 1.54 0 1.54a2.35 2.35 0 01-.62-.17z"/></g><path d="M25 53.58l2 .13a3.52 3.52 0 00.79 3c1.21 1.71 1.75 2 1.71 2.29a1.1 1.1 0 01-.92.75c-.5.08-1.21-.79-2.29-.42a17.32 17.32 0 01-2.17.59 5.18 5.18 0 00-2.66-.63c-1.09.21-2.71 1-4.8.42s-2-1.17-3.2-.84a7.87 7.87 0 01-2.34.42c-.33 0-.58 0-.46-.08a3.87 3.87 0 00.63-1.34c-.08-.12-.33-.54-.46-.33a3.14 3.14 0 01-1.37 1.25c-.63.17-2.8.25-3.88-1.12A3 3 0 015.31 54c.54-.5 1.5-1.08 1.54-1.21s-.62-.58-.62-.58-1.38-.08-1.42.13-.83 2.12-1 2A3.35 3.35 0 013 52a7.06 7.06 0 01.62-2.13 2.8 2.8 0 001.46 1.46c1 .29 1.13.17 1.13.17s-2.34-2-1.84-4.25 1.63-4.37 3.9-4.67 5.5.55 5.42 2.38a4.12 4.12 0 01-2.59 3.25 11.66 11.66 0 00-2.33.37 2.29 2.29 0 00-1.17 1.3 5.58 5.58 0 001.17.37c.17 0-.13-.87 1.42-.87s3.45.62 3.66 1.79a3.41 3.41 0 01-.54 2.25s.83 1 1.33 1 .92-.71 1.17-1a5.31 5.31 0 00.54-1.29s1.54.7 1.46 1.41-.5 1.21-.42 1.34 1 .54 1.3.29a2.33 2.33 0 012.58-.17c1 .71 1 1.87 1.21 2s1.41-.54 2-1.79a7.74 7.74 0 00.52-1.63z" fill="#e6e4da"/><path d="M28.14 52h1.5a2.7 2.7 0 000 2.67c.79 1.37 1.54 1.62 1.63 2s2.33-1 2.41-2.38a3.28 3.28 0 00-.37-2l1 .13s1.16 2.66.08 4-3.16 2.25-3.45 2.58-.55-1.12-1.67-2.41A4.48 4.48 0 0128.14 52z" fill="#ffe19b"/><path d="M31.23 51.46a1.43 1.43 0 011.46 2 7.32 7.32 0 01-1.34 2.29 3.57 3.57 0 01-1.12-2.58 2.32 2.32 0 011-1.71z" fill="#fab900"/><path d="M35.85 53.46h1.92a4.92 4.92 0 001.29 2c1 1 .83 1.63 1.25 1.92s.83.33 1 0a4.08 4.08 0 01.92-2.17A7.8 7.8 0 0143.44 54l1.66.29s1 1.42 1.67 1.42a1.57 1.57 0 001.08-.62s-1.62-.75-1.16-1.88a5.18 5.18 0 015.2-2.42 5.6 5.6 0 014.55 4.55 3.7 3.7 0 01-3.09 3.87c-2.16.33-4.58-.83-6.12-.46s-.92.63-2.13.5-1.91-.66-3.12-.62-2.92 1-3.5.87a7.71 7.71 0 00-2.84-.66c-1.12.12-1.66.2-1.66.2s-.84-.33-.79-.45 2.33-1 2.5-2.67.16-2.46.16-2.46z" fill="#e6e4da"/><path d="M50.23 49.63a3.32 3.32 0 01.25-3.84C51.89 44.29 55.27 44 57 45s2.58 5.46 2.37 6.58a3.11 3.11 0 01-1.12 1.8s.12.58.33.62 1-.58 1.34-1.25a11 11 0 00.45-2.67 3.76 3.76 0 01.75 4.05 9.63 9.63 0 01-2.79 4 4.66 4.66 0 01-1.46.29s2.09-3.17-.29-6a6.88 6.88 0 00-6.35-2.79z" fill="#e6e4da"/></svg>
