<svg width="800" height="800" viewBox="0 0 64 64" xmlns="http://www.w3.org/2000/svg"><path d="M51.68 14C45.59 6.57 38.89 4.57 35 4.57s-11.08.88-15.13 3.17-9.33 7.63-11.37 11.5a23.91 23.91 0 00-2.28 16.54 24.56 24.56 0 005.42 10.67s-3.5 5.71-.75 8.37a7.71 7.71 0 009 1.5s3.34 2.84 11.05 3.09 11.33-1.92 16-6 9.12-8.54 10.83-17.38-.01-14.62-6.09-22.03zm-1.21 33.53c-5.29 6.54-10.54 8.75-14 9.79s-10.17.17-12.08-.54a7.57 7.57 0 01-2.92-1.87s3.65-5.56-1.21-9c-4-2.84-7.08-.34-7.08-.34A20.44 20.44 0 018 34c-.54-6.79.79-12.17 3.37-15.62s7.59-11.75 22.59-12c3.54-.06 8.37 1.25 13.21 5.37s8.38 9.74 8.83 15.74-.24 13.51-5.53 20.04zm5-39.21a2.36 2.36 0 00-3-2.95A2.46 2.46 0 0051 9.12c.68.88 4 1.66 4.47-.8z" fill="#1d1d1b"/><path d="M52.64 6.41a1.59 1.59 0 012 1 1.38 1.38 0 01-2 1.46c-1.5-.63-.88-2.05 0-2.46z" fill="#85bfe9"/><path d="M37.59 10.45c1-.73 2.13.54 2.13 1.25s-1.25 1.29-1.92.92a1.29 1.29 0 01-.21-2.17zM46.64 14.66c1-.34 2.58.12 2.54 2.16s-2.79 1.75-3.42.75a1.94 1.94 0 01.88-2.91z" fill="#1d1d1b"/><path d="M47 15.54a1 1 0 011.28 1.1c0 1-1.41.89-1.73.38a1 1 0 01.45-1.48z" fill="#e6e4da"/><path d="M26.43 49.7c1-.34 2.58.12 2.54 2.17s-2.79 1.75-3.42.75a2 2 0 01.88-2.92z" fill="#1d1d1b"/><path d="M26.76 50.58a1 1 0 011.24 1.1c0 1-1.41.89-1.73.38a1 1 0 01.49-1.48z" fill="#e6e4da"/><path d="M14.09 47c1.89-1.17 5-.37 5.88.92s.75 4 .5 4.79a2.64 2.64 0 01-.92 1.29s-1-4-1.33-4.08-.83 0-.83.2 1.37 4.46 1.16 4.63a4.19 4.19 0 01-.62.37s-1.34-4.54-1.59-4.58-.83.38-.7.5 1.54 4.42 1.29 4.46-.67.12-.75 0-1.46-4.25-1.63-4.25-1 .33-.87.5 1.21 3.42 1 3.46A3.86 3.86 0 0112 51.87 4.92 4.92 0 0114.09 47z" fill="#ddc07c"/><path d="M19.26 49.53c.29-.16.88-.25.83-.08S20 51.32 20 51.32a.43.43 0 01-.5-.25 12 12 0 01-.24-1.54zM48.51 29.12c-.5-6.63-5-8.55-5-8.55S45.09 17 42.09 15 36 16.16 36 16.16c-4.75-1.25-9.33-.84-13.54 2.37a19.12 19.12 0 00-7 14.71C15.55 38.66 19 43.41 25 46.78s13.8 1.42 17.76-1.41 6.24-9.63 5.75-16.25zm-9.75 16.25c-4.67 1.87-12.54 1.7-16.83-2.84s-5.46-10.08-3.34-15.46 8.34-11.16 16.67-9.45a3.55 3.55 0 002.33 4.16c3 1 4.63.21 4.63.21s4.5 2.25 4.58 8.92-3.37 12.58-8.04 14.46z" fill="#1d1d1b"/><path d="M38.68 16a2.75 2.75 0 013.12 1c.84 1.29-.41 3.13-.83 3.38s-1.42-.17-1.42-.17-.29-2.09-.55-2.21-1-.12-.83.09.33 1.95.16 1.87a3.28 3.28 0 01-1.16-2.17A2 2 0 0138.68 16z" fill="#cbe7f5"/><g fill="#1d1d1b"><path d="M40 17.45c-.07-.26.67-.42.75-.08s.33 1.66.08 1.87-.75.21-.79 0-.04-1.62-.04-1.79zM31.51 22.57c-.09-.13-.17-3.16.17-3.16s.87-.25 1 .12a10.74 10.74 0 01-.09 3.09c-.25.12-.91.2-1.08-.05zM26.09 20.53c0-.13.71-.41.92-.25A9 9 0 0128.18 23c-.13.21-.46.58-.71.42a10.67 10.67 0 01-1.38-2.89zM22.68 23.66s2.33.71 2.33 1a1.81 1.81 0 01-.33.79 18.34 18.34 0 01-2.67-1c-.01-.08.38-.67.67-.79zM19.89 28.66c.2 0 2.83.5 2.91.79s.13.92-.12.92a23.28 23.28 0 01-3-.55c-.25-.12.21-1.16.21-1.16zM20.05 33.2a5.38 5.38 0 012.75-.08c.09.2.25.75.09.87a11.75 11.75 0 01-2.75.29c-.14-.08-.21-.91-.09-1.08zM22.22 39.87a7 7 0 012.12-2.17c.21.12.55.37.46.67s-1.75 2.33-2.08 2.29-.33-.66-.5-.79zM28.18 42.74c-.45 0 1.21-3.54 1.41-3.5s.8.08.71.42A21 21 0 0129.05 43c-.25.2-.66-.26-.87-.26zM33.14 39.57c.15-.15 1.08-.5 1.16-.16a20.78 20.78 0 01.34 3.75c-.17.08-1 .12-1-.09a20.85 20.85 0 01-.5-3.5zM38.55 37.07c-.17-.17.46-.87.67-.83s2.71 1.58 2.71 2-.25.87-.54.92a18 18 0 01-2.84-2.09zM40.51 30.12c0-.17 3.75 0 3.88.37a.82.82 0 010 .71 17.82 17.82 0 01-3.88-.2c-.21-.18-.04-.63 0-.88zM38.39 25c.12-.08 2.16-2 2.41-1.83a1.82 1.82 0 01.71.83 12.18 12.18 0 01-2.46 1.71 5.14 5.14 0 01-.66-.71z"/><path d="M28.93 25c2.7-1.15 10-.33 10 6.46s-8.75 9-11.92 5.16-3.67-9.3 1.92-11.62z"/></g><path d="M29.64 26.59c2-.86 7.48-.25 7.45 4.83s-6.54 6.71-8.91 3.87-2.72-6.92 1.46-8.7z" fill="#fab900"/></svg>
