<svg width="800" height="800" viewBox="0 0 64 64" xmlns="http://www.w3.org/2000/svg"><path d="M4.59 12.82A42.42 42.42 0 0111 11.65a34.62 34.62 0 015.75-.12 5.23 5.23 0 013.71-2.75c2.67-.46 13.33 0 17.42 0s7.25.58 7.62 1.08a5.39 5.39 0 01.59 1.75 23.18 23.18 0 015-.41c3.62 0 9.29-.38 9.37 3.16s-3.33 21-3.33 21 .41 4.79-.17 7.13-1.5 4.12-2 4.16-3.87-.25-3.87-.25-2 8.67-2.46 8.88-18.92.12-25.25.08-7.42-.29-7.59-.58-2.08-9.13-2.08-9.13-5.21.71-5.42.3S5.3 34.36 5.55 34.07a8 8 0 011.75-.83S4 16.07 3.71 15.45s-.25-2.17.88-2.63z" fill="#1d1d1b"/><path d="M46.63 13h7s4.87.29 5 1.21S57.25 25.2 56.84 29a16.59 16.59 0 01-1.34 5.54 48.11 48.11 0 00-6.25-1.79 22.36 22.36 0 01-3.79-1s.84-6.67 1-10.54.17-8.21.17-8.21z" fill="#e7413e"/><path d="M50.09 23.24c1.88-.45 6 .33 5.62 5s-5.58 5.46-7.58 3.37-2.08-7.41 1.96-8.37z" fill="#1d1d1b"/><path d="M50.31 24.13a3.63 3.63 0 014.55 4.05 3.73 3.73 0 01-6.13 2.72c-1.62-1.68-1.73-5.99 1.58-6.77z" fill="#fab900"/><path d="M50.62 25.35a2.46 2.46 0 013.08 2.74 2.53 2.53 0 01-4.15 1.85c-1.1-1.14-1.15-4.06 1.07-4.59z" fill="#1d1d1b"/><path d="M50.84 26.22a1.62 1.62 0 012 1.81 1.67 1.67 0 01-2.74 1.22c-.69-.75-.72-2.68.74-3.03z" fill="#ffe19b"/><path d="M5.63 13.86a26.94 26.94 0 015.42-.86c2.54-.21 5-.25 5.08 0s1.71 18.82 1.58 19a53.83 53.83 0 01-8.29 1c-.25-.14-4.12-17.76-3.79-19.14z" fill="#e7413e"/><path d="M19.13 23.74s-1-11-.92-11.25.46-1.84 3.09-2.17 8.33-.12 13.62.08 9.21.75 9.38 1.25.25 9 .16 12.25-.71 7.67-1 7.67H39.8A7.5 7.5 0 0036.38 30c-2.13-.42-3.25-.59-3.25-.59s.79-5.12-2.75-7.58a7.69 7.69 0 00-8.08-.54 12.85 12.85 0 00-3.17 2.45z" fill="#1f4863"/><path d="M19.3 25.32c.16-.12 1.87-2.58 4-3.37a7.34 7.34 0 013.91-.38A2.26 2.26 0 0026 23.65c.17 1.38 1.75 1.63 2.59 1.38s.87-1 .58-1.17-.92.38-1.29.38-1.13-1-.59-1.54a1.76 1.76 0 011.55-.5 5.05 5.05 0 012.91 3.58c.54 2.54.17 3.33.17 3.33S29.09 29 28.75 29a9.07 9.07 0 00-1 .37s-.33-.87-.45-.79-.55 1.38-1.71 1.13-1.84-2.09-.71-2.34l1.12-.22s-.08-.66-.58-.66-1.87.21-2 1.46 0 1.91.83 2.41a4.18 4.18 0 001.92.5L25.55 32s-5.75.29-5.84.16-.41-6.84-.41-6.84z" fill="#e6e4da"/><path d="M7.67 35.15c.16-.25 4.58-.66 7.67-1.12a94.73 94.73 0 019.71-.46s-1.05 4.83-1.25 5S18 40 17.75 40.11s.71 3.21.5 3.25-8.33.88-8.45.75-2.34-8.62-2.13-8.96zM47.71 41.74s.21-2.71.5-2.75 6 1.08 6 1.33S53.8 43 53.55 43a16.61 16.61 0 00-1.71-.34c-.17.09-.63 1.46-.46 1.59a7.39 7.39 0 002.54.5A19.73 19.73 0 0055.38 40a8.12 8.12 0 00.12-3.54 74.78 74.78 0 00-10-2.75 29.89 29.89 0 00-5.84-.46l.79 4.66a39.26 39.26 0 015.13 2c.92.63.62 2.42.5 2.88a5 5 0 01-.42 1l3.71.37.08-1.67z" fill="#85bfe9"/><path d="M28.75 31c.94-.65 4.46.12 5.55.16a7.26 7.26 0 013.08 1c.17.25 1.08 7.17 1.29 7.34s5.38 1.66 5.58 2.21-1.33 3.08-2.2 3.91a10.85 10.85 0 01-1.46 1.21 21.54 21.54 0 00-2-3c-.25 0-1 .17-.8.54s2.13 2.75 2 2.92a6.65 6.65 0 01-1.25.58 37 37 0 00-2.37-3c-.17 0-.88.21-.79.37a28.18 28.18 0 012 3.17 2.12 2.12 0 01-.75.33s-2.63-3.46-2.79-3.42-.71.33-.59.5a24.85 24.85 0 012.34 3.08 12.09 12.09 0 01-1.79.38 25.46 25.46 0 00-2.42-3c-.25 0-.71.42-.63.58a25.94 25.94 0 012 2.75c-.12.13-.91.5-.83 1a34.16 34.16 0 01.63 3.67 24.55 24.55 0 01-2.46 0 37.62 37.62 0 00.5-3.88c-.13-.12-5.13-1.21-8-3.92s-3-4.79-2.75-4.91 5.83-1.59 5.91-1.84 1.21-5.87 1.46-6.5A6.22 6.22 0 0128.75 31z" fill="#696a9b"/><path d="M15.5 45.82c.2-.07 3.34-.5 3.34-.5a10.12 10.12 0 002.62 2.54A37.06 37.06 0 0027.84 51l.58.2a22.79 22.79 0 01.13 2.8c-.13 0-2.25.08-2.25.08a19.68 19.68 0 00-1.59-3.29c-.29-.08-.79.13-.71.25S25.13 54 25.13 54h-1.25s-1.75-3.67-2-3.71-1 .08-.84.25 2 3.37 1.71 3.41-1.33.09-1.33.09-1.58-3-1.75-3-.71.25-.67.37A20 20 0 0120.05 54a23.63 23.63 0 01-3.05-.18c-.12-.12-1.62-7.96-1.5-8zM34.42 51.32a18.57 18.57 0 005.5-1.92 16.87 16.87 0 004.67-4 37.65 37.65 0 014.79.46c0 .21-.38 2.38-.38 2.38s-.54-1.34-.7-1.29-.84.37-.67.54A11.67 11.67 0 0148.71 50c0 .21-.41 1.54-.41 1.54s-1.55-2.67-1.67-2.67-.83.25-.71.46 2 3.38 2 3.63-.17 1.5-.17 1.5l-.41-.09S44.88 50 44.71 50a3.14 3.14 0 00-.75.41l2.34 4.09h-1.25A36.42 36.42 0 0043 51.07c-.16 0-.75.25-.75.42s1.79 2.91 1.63 3a11.83 11.83 0 01-1.29-.05s-1.13-2.29-1.38-2.29-.92.13-.83.29l1 2h-1s-.63-1.54-.88-1.58-.91.13-.83.25.54 1.38.37 1.38a34.11 34.11 0 01-4.2-.09 14.62 14.62 0 01-.42-3.08z" fill="#92a0d1"/><g fill="#1d1d1b"><path d="M51.07 27.14A.74.74 0 0152 28a.77.77 0 01-1.26.56c-.33-.38-.34-1.26.33-1.42zM7.3 15.28c.29-.13 3.83-.63 4-.29a20 20 0 01.41 4.62 13.36 13.36 0 01-3.7.46 36.52 36.52 0 01-.71-4.79zM12.46 14.9c.25 0 2.38-.5 2.46-.12s.25.75 0 .79a12 12 0 01-2.41.25c-.13-.12-.05-.92-.05-.92zM12.67 16.78c.25 0 2.38-.5 2.46-.13s.25.75 0 .8a12.75 12.75 0 01-2.42.25c-.12-.13-.04-.92-.04-.92z"/></g><path d="M8.46 16.24a8.52 8.52 0 012-.17c.08.13.29 2.63.29 2.63s-1.87.45-1.91.29-.38-2.75-.38-2.75z" fill="#e6e4da"/><path d="M8.25 21.36c.17 0 7.17-1 7.25-.83s.25.62.05.75-7.21 1.17-7.3 1-.2-.88 0-.92zM8.55 23.15c.16 0 7.16-1 7.25-.83s.25.63 0 .75-7.21 1.17-7.29 1-.17-.87.04-.92zM8.84 25.2c.17 0 7.16-1.05 7.25-.84s.25.63 0 .75-7.21 1.17-7.29 1-.17-.87.04-.91zM10.05 28a1.78 1.78 0 012.7.91 1.73 1.73 0 01-2.45 2 1.65 1.65 0 01-.25-2.91z" fill="#1d1d1b"/><path d="M10.56 28.63a.89.89 0 011.35.46.87.87 0 01-1.23 1 .83.83 0 01-.12-1.46z" fill="#fab900"/><path d="M14.13 27.53a1.78 1.78 0 012.71.92 1.74 1.74 0 01-2.46 1.95 1.66 1.66 0 01-.25-2.87z" fill="#1d1d1b"/><path d="M14.64 28.21a.9.9 0 011.36.46.87.87 0 01-1.23 1 .83.83 0 01-.13-1.46z" fill="#fab900"/><path d="M25 16.65A1.22 1.22 0 0126.71 18a1.33 1.33 0 01-2.25.5c-.54-.64-.41-1.3.54-1.85zM27.17 13.4c.09-.22 1.17-.75 1.71-.12s.29 1.37-.29 1.5-1.79-.42-1.42-1.38zM41 17.28a3.26 3.26 0 000-2.38c-.5-1.45-2.42-1.37-2.42-1.37-1.87-1.63-3.25-.88-3.54 0s.75 2.67.75 2.67a2.73 2.73 0 00.46 1.62 2.38 2.38 0 001.46 1 9.62 9.62 0 001.37 1c.34.13 1.59.71 2.38-.12S41 17.28 41 17.28zm-4.37-2.88a3.22 3.22 0 01-.38.46S35.5 14 36 13.53s1.3.37 1.3.37a2 2 0 00-.67.5zm4.21 4.8c-.34.37-1.38-.38-1.38-.38a1.18 1.18 0 00.54-.25 5.2 5.2 0 00.5-.5s.67.75.34 1.13z" fill="#1d1d1b"/><path d="M38.71 14.61a1.8 1.8 0 011.67 1.92 1.68 1.68 0 01-2.83 1c-1.17-1.17-.67-3.17 1.16-2.92z" fill="#e6e4da"/><path d="M38 22.2c.52-.43 1.92-.46 2.13.5a1.26 1.26 0 01-1.54 1.58c-1.13-.17-1.04-1.71-.59-2.08z" fill="#1d1d1b"/><path d="M38.53 22.71c.22-.18.83-.19.91.22a.54.54 0 01-.66.68c-.48-.07-.45-.73-.25-.9z" fill="#e6e4da"/><path d="M48.46 14c.11-.14.84-.13.84 0s.08 2.25.08 2.25a6 6 0 002.12.16c.84-.16 1.17-.33 1.42.17a8.57 8.57 0 01.46 1.62 1.05 1.05 0 01.92-.37c.62 0 .83.08 1 0a12 12 0 011.33-.46s.25.75.08.87a4.36 4.36 0 01-1.33.46c-.25 0-1.21 0-1.37.21s-.09.67-.09.88.5.33.88.7.41.59.25.67a3.5 3.5 0 01-1.42-.46 2.36 2.36 0 01-.62-.71c-.17-.25-.25-.62-.63-.87s0-.17-.37-.25-.88-.17-1 .17a2.09 2.09 0 01-.75 1.16 5.28 5.28 0 00-.88.63 10.32 10.32 0 012.71.25c1.58.33 3.92.54 4 .71a4.11 4.11 0 01-.17.91s-7.62-.87-7.79-1.08a65.79 65.79 0 01.33-7.62z" fill="#1d1d1b"/><path d="M49.5 17.36a6.55 6.55 0 001.42 0c.67-.08 1.13-.37 1.33-.16a1.72 1.72 0 01.3.75 3.21 3.21 0 00-1.67 0A2 2 0 0050 19c-.16.33-.25.58-.54.71s.04-2.35.04-2.35z" fill="#a42116"/><path d="M9.3 36a10.3 10.3 0 012.83-.25 14.45 14.45 0 01.58 3.37 12.34 12.34 0 01-2.79.38A9.93 9.93 0 019.3 36z" fill="#1d1d1b"/><path d="M10.05 36.75a5.93 5.93 0 011.57-.14 8 8 0 01.38 1.87 6.73 6.73 0 01-1.55.21 5.83 5.83 0 01-.4-1.94z" fill="#e7413e"/><path d="M13.13 35.57a10.33 10.33 0 012.87-.25 14.47 14.47 0 01.59 3.38 12.5 12.5 0 01-2.8.37 10.12 10.12 0 01-.66-3.5z" fill="#1d1d1b"/><path d="M13.89 36.29a5.89 5.89 0 011.57-.14 8 8 0 01.32 1.85 6.66 6.66 0 01-1.55.21 5.54 5.54 0 01-.34-1.92z" fill="#ffe19b"/><path d="M17.94 35.52a1.46 1.46 0 012.22.76 1.43 1.43 0 01-2 1.61 1.37 1.37 0 01-.22-2.37z" fill="#1d1d1b"/><path d="M18.36 36.09a.72.72 0 011.11.37.71.71 0 01-1 .81.68.68 0 01-.11-1.18z" fill="#f2910d"/><path d="M21.44 35.31a1.46 1.46 0 012.22.76 1.43 1.43 0 01-2 1.61 1.37 1.37 0 01-.22-2.37z" fill="#1d1d1b"/><path d="M21.86 35.88a.73.73 0 011.11.38.71.71 0 01-1 .8.68.68 0 01-.11-1.18z" fill="#fab900"/><path d="M10.73 40.56a1.46 1.46 0 012.22.76 1.43 1.43 0 01-2 1.61 1.37 1.37 0 01-.22-2.37z" fill="#1d1d1b"/><path d="M11.15 41.13a.73.73 0 011.11.38.71.71 0 01-1 .8.68.68 0 01-.11-1.18z" fill="#ffe19b"/><path d="M14.52 40.15a1.47 1.47 0 012.23.75 1.43 1.43 0 01-2 1.61 1.37 1.37 0 01-.23-2.36z" fill="#1d1d1b"/><path d="M14.94 40.71a.73.73 0 011.11.38.71.71 0 01-1 .8.68.68 0 01-.11-1.18z" fill="#cbe7f5"/><path d="M42.14 34.52a1.47 1.47 0 012.23.76 1.43 1.43 0 01-2 1.61 1.37 1.37 0 01-.23-2.37z" fill="#1d1d1b"/><path d="M42.57 35.09a.73.73 0 011.11.37.72.72 0 01-1 .81.68.68 0 01-.11-1.18z" fill="#f2910d"/><path d="M45.89 35.27a1.47 1.47 0 012.23.76 1.43 1.43 0 01-2 1.61 1.37 1.37 0 01-.23-2.37z" fill="#1d1d1b"/><path d="M46.32 35.84a.73.73 0 011.11.37.72.72 0 01-1 .81.68.68 0 01-.11-1.18z" fill="#fab900"/><path d="M49.77 36.34a.73.73 0 011.12.37.72.72 0 01-1 .81.68.68 0 01-.12-1.18zM52.69 37a.73.73 0 011.11.38.71.71 0 01-1 .8.68.68 0 01-.11-1.18z" fill="#1d1d1b"/><path d="M48.88 40a31.37 31.37 0 014.46 1c0 .12-.13.91-.25.87s-1.79-.5-1.88-.33-.41 2.54-.54 2.54a1.86 1.86 0 01-.42-.12l.25-2.63a11.16 11.16 0 01-2-.37 9 9 0 01.38-.96z" fill="#fab900"/><path d="M29 32.57c.12-.12.92-.12.92.13a14.84 14.84 0 01-.71 3.2c-.21.09-.75.09-.79-.2a18 18 0 01.58-3.13zM40.71 42.86c.14 0 .59.59.46.88a.84.84 0 01-.37.41l-.71-.7a3 3 0 01.62-.59z" fill="#1d1d1b"/></svg>
